#N canvas 499 176 896 424 10;
#N canvas 547 397 336 325 stream 0;
#X obj 26 36 inlet;
#X obj 104 35 inlet~;
#X obj 80 121 udpsend~ 1 512;
#X connect 0 0 2 0;
#X connect 1 0 2 0;
#X restore 73 235 pd stream;
#N canvas 427 208 398 300 audio_source 0;
#X obj -109 24 osc~ 440;
#X obj -14 22 noise~;
#X obj 53 68 r channel_ratio;
#X text 162 68 1 / channel num;
#X obj -126 197 s~ stream_audio_1;
#X obj -1 197 s~ stream_audio_2;
#X obj -72 140 *~ 0.2;
#X obj -40 234 s~ stream_audio_3;
#X obj 85 234 s~ stream_audio_4;
#X obj -115 263 s~ stream_audio_5;
#X obj 10 263 s~ stream_audio_6;
#X connect 0 0 6 0;
#X connect 1 0 6 0;
#X connect 2 0 6 1;
#X connect 6 0 4 0;
#X connect 6 0 5 0;
#X connect 6 0 7 0;
#X connect 6 0 8 0;
#X connect 6 0 9 0;
#X connect 6 0 10 0;
#X restore 28 76 pd audio_source;
#N canvas 547 397 336 325 stream 0;
#X obj 26 36 inlet;
#X obj 104 35 inlet~;
#X obj 80 121 udpsend~ 1 512;
#X connect 0 0 2 0;
#X connect 1 0 2 0;
#X restore 57 361 pd stream;
#X obj 29 156 r stream_ip_1;
#X obj 33 288 r stream_ip_2;
#X obj 95 199 r~ stream_audio_1;
#X obj 99 326 r~ stream_audio_2;
#X obj 18 224 print;
#X obj 217 43 s stream_ip_1;
#X obj 330 43 s stream_ip_2;
#X msg 96 13 disconnect;
#X msg 204 14 connect 192.168.0.102 1349;
#X msg 451 16 connect 192.168.0.100 1349;
#N canvas 547 397 336 325 stream 0;
#X obj 26 36 inlet;
#X obj 104 35 inlet~;
#X obj 80 121 udpsend~ 1 512;
#X connect 0 0 2 0;
#X connect 1 0 2 0;
#X restore 293 245 pd stream;
#N canvas 547 397 336 325 stream 0;
#X obj 26 36 inlet;
#X obj 104 35 inlet~;
#X obj 80 121 udpsend~ 1 512;
#X connect 0 0 2 0;
#X connect 1 0 2 0;
#X restore 277 371 pd stream;
#X obj 238 234 print;
#N canvas 547 397 336 325 stream 0;
#X obj 26 36 inlet;
#X obj 104 35 inlet~;
#X obj 80 121 udpsend~ 1 512;
#X connect 0 0 2 0;
#X connect 1 0 2 0;
#X restore 489 252 pd stream;
#N canvas 547 397 336 325 stream 0;
#X obj 26 36 inlet;
#X obj 104 35 inlet~;
#X obj 80 121 udpsend~ 1 512;
#X connect 0 0 2 0;
#X connect 1 0 2 0;
#X restore 473 378 pd stream;
#X obj 434 241 print;
#X obj 249 166 r stream_ip_3;
#X obj 253 298 r stream_ip_4;
#X obj 445 173 r stream_ip_5;
#X obj 449 305 r stream_ip_6;
#X obj 315 209 r~ stream_audio_3;
#X obj 319 336 r~ stream_audio_4;
#X obj 511 216 r~ stream_audio_5;
#X obj 515 343 r~ stream_audio_6;
#X connect 3 0 0 0;
#X connect 3 0 7 0;
#X connect 4 0 2 0;
#X connect 5 0 0 1;
#X connect 6 0 2 1;
#X connect 10 0 8 0;
#X connect 10 0 9 0;
#X connect 11 0 8 0;
#X connect 12 0 9 0;
#X connect 19 0 13 0;
#X connect 19 0 15 0;
#X connect 20 0 14 0;
#X connect 21 0 16 0;
#X connect 21 0 18 0;
#X connect 22 0 17 0;
#X connect 23 0 13 1;
#X connect 24 0 14 1;
#X connect 25 0 16 1;
#X connect 26 0 17 1;
