#N canvas 178 275 736 491 10;
#X obj 198 101 print udpreceive~;
#X symbolatom -147 188 10 0 0 0 - - -;
#X floatatom -113 122 5 0 0 0 - - -;
#X floatatom -78 101 7 0 0 0 - - -;
#X floatatom -44 166 9 0 0 0 - - -;
#X obj -147 147 prepend set;
#X text -177 121 channels:;
#X text -193 187 format:;
#X text -93 165 bitrate:;
#X text -142 100 framesize:;
#X floatatom -9 123 9 0 0 0 - - -;
#X floatatom 25 101 9 0 0 0 - - -;
#X floatatom 60 144 5 0 0 0 - - -;
#X floatatom 94 123 5 0 0 0 - - -;
#X text -66 122 overflow:;
#X text -35 100 underflow:;
#X text -1 143 queuesize:;
#X text 46 122 average:;
#X floatatom -114 3 3 0 0 0 - - -;
#X floatatom -88 9 3 0 0 0 - - -;
#X floatatom -68 3 3 0 0 0 - - -;
#X floatatom -45 3 3 0 0 0 - - -;
#X floatatom -21 3 5 0 0 0 - - -;
#X obj -114 -23 unpack 0 0 0 0 0;
#X text -151 2 from:;
#X floatatom 129 166 9 0 0 0 - - -;
#X text 77 165 packets:;
#X text 24 -24 To communicate \, a [udpreceive~] and [udpsend~] pair
must have the same number of channels and the same blocksize. Also
[udpsend~] must [connect( to the port on which [udpreceive~] is listening.
;
#X text -103 -46 receives 2 channels on port 8008 Same blocksize as
udpsend~;
#X obj -147 64 route format channels framesize bitrate overflow underflow
queuesize average packets tag_errors;
#X floatatom 163 144 9 0 0 0 - - -;
#X text 97 143 tag errors:;
#X obj -180 15 env~;
#X floatatom -180 38 9 0 0 0 - - -;
#X text -120 27 The rightmost signal outlet outputs 1 if the stream
is valid \, else 0;
#X text -26 -183 Arguments: port \, channels \, blocksize \, multicast_address.
Blocksize should match [udpsend~]. multicast_address is optional. Arguments
must be in that order.;
#X obj -192 228 print;
#X obj -242 -14 dac~ 1;
#X obj -358 -172 r udpreceive_buffer;
#X obj -325 -140 r udpreceive_port;
#X obj -267 -103 r info;
#X obj -246 -45 udpreceive~ 1349 1 512 ;
#X connect 5 0 1 0;
#X connect 23 0 18 0;
#X connect 23 1 19 0;
#X connect 23 2 20 0;
#X connect 23 3 21 0;
#X connect 23 4 22 0;
#X connect 29 0 5 0;
#X connect 29 1 2 0;
#X connect 29 2 3 0;
#X connect 29 3 4 0;
#X connect 29 4 10 0;
#X connect 29 5 11 0;
#X connect 29 6 12 0;
#X connect 29 7 13 0;
#X connect 29 8 25 0;
#X connect 29 9 30 0;
#X connect 29 10 0 0;
#X connect 32 0 33 0;
#X connect 38 0 41 0;
#X connect 39 0 41 0;
#X connect 40 0 41 0;
#X connect 41 0 37 0;
#X connect 41 1 32 0;
#X connect 41 2 29 0;
#X connect 41 3 23 0;
