#N canvas 538 164 693 434 10;
#X declare -lib mrpeach;
#N canvas 547 397 336 325 stream 0;
#X obj 64 69 inlet;
#X obj 190 50 inlet~;
#X obj 162 159 udpsend~ 1 512;
#X obj 41 126 print;
#X connect 0 0 2 0;
#X connect 0 0 3 0;
#X connect 1 0 2 0;
#X restore 73 235 pd stream;
#N canvas 427 208 398 300 audio_source 0;
#X obj -109 24 osc~ 440;
#X obj -14 22 noise~;
#X obj 53 68 r channel_ratio;
#X text 162 68 1 / channel num;
#X obj -126 197 s~ stream_audio_1;
#X obj -1 197 s~ stream_audio_2;
#X obj -72 140 *~ 0.2;
#X obj -40 234 s~ stream_audio_3;
#X obj 85 234 s~ stream_audio_4;
#X obj -115 263 s~ stream_audio_5;
#X obj 10 263 s~ stream_audio_6;
#X connect 0 0 6 0;
#X connect 1 0 6 0;
#X connect 2 0 6 1;
#X connect 6 0 4 0;
#X connect 6 0 5 0;
#X connect 6 0 7 0;
#X connect 6 0 8 0;
#X connect 6 0 9 0;
#X connect 6 0 10 0;
#X restore 28 76 pd audio_source;
#X obj 29 156 r stream_ip_1;
#X obj 33 288 r stream_ip_2;
#X obj 95 199 r~ stream_audio_1;
#X obj 99 326 r~ stream_audio_2;
#X obj 434 241 print;
#X obj 249 166 r stream_ip_3;
#X obj 253 298 r stream_ip_4;
#X obj 445 173 r stream_ip_5;
#X obj 449 305 r stream_ip_6;
#X obj 315 209 r~ stream_audio_3;
#X obj 319 336 r~ stream_audio_4;
#X obj 511 216 r~ stream_audio_5;
#X obj 515 343 r~ stream_audio_6;
#N canvas 597 197 568 344 oscBonjour 1;
#X obj 342 8 import mrpeach;
#X obj 31 -3 dumpOSC 3000;
#X obj 33 57 routeOSC /stream1 /stream2 /stream3 /stream4 /stream5
/stream6;
#X obj 50 162 s stream_ip_2;
#X obj 156 172 s stream_ip_3;
#X obj 258 193 s stream_ip_4;
#X obj 388 198 s stream_ip_5;
#X obj 428 143 s stream_ip_6;
#N canvas 208 117 735 587 createMessage 0;
#X obj 40 93 select disconnect;
#X obj 267 528 outlet;
#X obj 205 6 inlet;
#X msg 156 481 disconnect;
#X obj 364 388 spigot;
#X msg 263 306 1;
#X msg 384 234 add2 \$1;
#X msg 383 279 connect;
#X msg 494 256 set connect;
#X obj 384 195 drip;
#X msg 412 355 0;
#X obj 433 428 t b;
#X obj 236 252 t b b;
#X obj 208 43 unpack s s s;
#X obj 241 88 fromsymbol;
#X obj 240 123 route float;
#X text 564 338;
#X text 241 24 connect port IP;
#X text 376 31 This is a hard workaround for Pds data types;
#X text 318 89 Converting port number to Pd's float type;
#X text 427 193 Sequentially sending them to a connect message;
#X text 460 233 Clearing the message for further reusage;
#X text 387 307 The main connect message;
#X text 398 456 Close the spigot \, clear connect message;
#X text 228 208 1) Open spigot;
#X text 229 224 2) Send connect message;
#X text 378 113 Otherwise udpsend~ crashes with error;
#X connect 0 0 3 0;
#X connect 0 1 12 0;
#X connect 2 0 13 0;
#X connect 3 0 1 0;
#X connect 4 0 1 0;
#X connect 4 0 11 0;
#X connect 5 0 4 1;
#X connect 6 0 7 0;
#X connect 7 0 4 0;
#X connect 8 0 7 0;
#X connect 9 0 6 0;
#X connect 10 0 4 1;
#X connect 11 0 8 0;
#X connect 11 0 10 0;
#X connect 12 0 7 0;
#X connect 12 1 5 0;
#X connect 13 0 0 0;
#X connect 13 1 14 0;
#X connect 13 2 9 0;
#X connect 14 0 15 0;
#X connect 15 0 9 0;
#X restore 32 200 pd createMessage;
#X obj 38 238 s stream_ip_1;
#N canvas 208 117 735 587 createMessage 0;
#X obj 40 93 select disconnect;
#X obj 267 528 outlet;
#X obj 205 6 inlet;
#X msg 156 481 disconnect;
#X obj 364 388 spigot;
#X msg 263 306 1;
#X msg 384 234 add2 \$1;
#X msg 383 279 connect;
#X msg 494 256 set connect;
#X obj 384 195 drip;
#X msg 412 355 0;
#X obj 433 428 t b;
#X obj 236 252 t b b;
#X obj 208 43 unpack s s s;
#X obj 241 88 fromsymbol;
#X obj 240 123 route float;
#X text 564 338 comment;
#X text 241 24 connect port IP;
#X text 376 31 This is a hard workaround for Pds data types;
#X text 318 89 Converting port number to Pd's float type;
#X text 427 193 Sequentially sending them to a connect message;
#X text 460 233 Clearing the message for further reusage;
#X text 387 307 The main connect message;
#X text 398 456 Close the spigot \, clear connect message;
#X text 228 208 1) Open spigot;
#X text 229 224 2) Send connect message;
#X text 378 113 Otherwise udpsend~ crashes with error;
#X connect 0 0 3 0;
#X connect 0 1 12 0;
#X connect 2 0 13 0;
#X connect 3 0 1 0;
#X connect 4 0 1 0;
#X connect 4 0 11 0;
#X connect 5 0 4 1;
#X connect 6 0 7 0;
#X connect 7 0 4 0;
#X connect 8 0 7 0;
#X connect 9 0 6 0;
#X connect 10 0 4 1;
#X connect 11 0 8 0;
#X connect 11 0 10 0;
#X connect 12 0 7 0;
#X connect 12 1 5 0;
#X connect 13 0 0 0;
#X connect 13 1 14 0;
#X connect 13 2 9 0;
#X connect 14 0 15 0;
#X connect 15 0 9 0;
#X restore 46 133 pd createMessage;
#N canvas 208 117 735 587 createMessage 0;
#X obj 40 93 select disconnect;
#X obj 267 528 outlet;
#X obj 205 6 inlet;
#X msg 156 481 disconnect;
#X obj 364 388 spigot;
#X msg 263 306 1;
#X msg 384 234 add2 \$1;
#X msg 383 279 connect;
#X msg 494 256 set connect;
#X obj 384 195 drip;
#X msg 412 355 0;
#X obj 433 428 t b;
#X obj 236 252 t b b;
#X obj 208 43 unpack s s s;
#X obj 241 88 fromsymbol;
#X obj 240 123 route float;
#X text 564 338 comment;
#X text 241 24 connect port IP;
#X text 376 31 This is a hard workaround for Pds data types;
#X text 318 89 Converting port number to Pd's float type;
#X text 427 193 Sequentially sending them to a connect message;
#X text 460 233 Clearing the message for further reusage;
#X text 387 307 The main connect message;
#X text 398 456 Close the spigot \, clear connect message;
#X text 228 208 1) Open spigot;
#X text 229 224 2) Send connect message;
#X text 378 113 Otherwise udpsend~ crashes with error;
#X connect 0 0 3 0;
#X connect 0 1 12 0;
#X connect 2 0 13 0;
#X connect 3 0 1 0;
#X connect 4 0 1 0;
#X connect 4 0 11 0;
#X connect 5 0 4 1;
#X connect 6 0 7 0;
#X connect 7 0 4 0;
#X connect 8 0 7 0;
#X connect 9 0 6 0;
#X connect 10 0 4 1;
#X connect 11 0 8 0;
#X connect 11 0 10 0;
#X connect 12 0 7 0;
#X connect 12 1 5 0;
#X connect 13 0 0 0;
#X connect 13 1 14 0;
#X connect 13 2 9 0;
#X connect 14 0 15 0;
#X connect 15 0 9 0;
#X restore 164 145 pd createMessage;
#N canvas 208 117 735 587 createMessage 0;
#X obj 40 93 select disconnect;
#X obj 267 528 outlet;
#X obj 205 6 inlet;
#X msg 156 481 disconnect;
#X obj 364 388 spigot;
#X msg 263 306 1;
#X msg 384 234 add2 \$1;
#X msg 383 279 connect;
#X msg 494 256 set connect;
#X obj 384 195 drip;
#X msg 412 355 0;
#X obj 433 428 t b;
#X obj 236 252 t b b;
#X obj 208 43 unpack s s s;
#X obj 241 88 fromsymbol;
#X obj 240 123 route float;
#X text 564 338 comment;
#X text 241 24 connect port IP;
#X text 376 31 This is a hard workaround for Pds data types;
#X text 318 89 Converting port number to Pd's float type;
#X text 427 193 Sequentially sending them to a connect message;
#X text 460 233 Clearing the message for further reusage;
#X text 387 307 The main connect message;
#X text 398 456 Close the spigot \, clear connect message;
#X text 228 208 1) Open spigot;
#X text 229 224 2) Send connect message;
#X text 378 113 Otherwise udpsend~ crashes with error;
#X connect 0 0 3 0;
#X connect 0 1 12 0;
#X connect 2 0 13 0;
#X connect 3 0 1 0;
#X connect 4 0 1 0;
#X connect 4 0 11 0;
#X connect 5 0 4 1;
#X connect 6 0 7 0;
#X connect 7 0 4 0;
#X connect 8 0 7 0;
#X connect 9 0 6 0;
#X connect 10 0 4 1;
#X connect 11 0 8 0;
#X connect 11 0 10 0;
#X connect 12 0 7 0;
#X connect 12 1 5 0;
#X connect 13 0 0 0;
#X connect 13 1 14 0;
#X connect 13 2 9 0;
#X connect 14 0 15 0;
#X connect 15 0 9 0;
#X restore 277 168 pd createMessage;
#N canvas 208 117 735 587 createMessage 0;
#X obj 40 93 select disconnect;
#X obj 267 528 outlet;
#X obj 205 6 inlet;
#X msg 156 481 disconnect;
#X obj 364 388 spigot;
#X msg 263 306 1;
#X msg 384 234 add2 \$1;
#X msg 383 279 connect;
#X msg 494 256 set connect;
#X obj 384 195 drip;
#X msg 412 355 0;
#X obj 433 428 t b;
#X obj 236 252 t b b;
#X obj 208 43 unpack s s s;
#X obj 241 88 fromsymbol;
#X obj 240 123 route float;
#X text 564 338 comment;
#X text 241 24 connect port IP;
#X text 376 31 This is a hard workaround for Pds data types;
#X text 318 89 Converting port number to Pd's float type;
#X text 427 193 Sequentially sending them to a connect message;
#X text 460 233 Clearing the message for further reusage;
#X text 387 307 The main connect message;
#X text 398 456 Close the spigot \, clear connect message;
#X text 228 208 1) Open spigot;
#X text 229 224 2) Send connect message;
#X text 378 113 Otherwise udpsend~ crashes with error;
#X connect 0 0 3 0;
#X connect 0 1 12 0;
#X connect 2 0 13 0;
#X connect 3 0 1 0;
#X connect 4 0 1 0;
#X connect 4 0 11 0;
#X connect 5 0 4 1;
#X connect 6 0 7 0;
#X connect 7 0 4 0;
#X connect 8 0 7 0;
#X connect 9 0 6 0;
#X connect 10 0 4 1;
#X connect 11 0 8 0;
#X connect 11 0 10 0;
#X connect 12 0 7 0;
#X connect 12 1 5 0;
#X connect 13 0 0 0;
#X connect 13 1 14 0;
#X connect 13 2 9 0;
#X connect 14 0 15 0;
#X connect 15 0 9 0;
#X restore 408 175 pd createMessage;
#N canvas 208 117 735 587 createMessage 0;
#X obj 40 93 select disconnect;
#X obj 267 528 outlet;
#X obj 205 6 inlet;
#X msg 156 481 disconnect;
#X obj 364 388 spigot;
#X msg 263 306 1;
#X msg 384 234 add2 \$1;
#X msg 383 279 connect;
#X msg 494 256 set connect;
#X obj 384 195 drip;
#X msg 412 355 0;
#X obj 433 428 t b;
#X obj 236 252 t b b;
#X obj 208 43 unpack s s s;
#X obj 241 88 fromsymbol;
#X obj 240 123 route float;
#X text 564 338 comment;
#X text 241 24 connect port IP;
#X text 376 31 This is a hard workaround for Pds data types;
#X text 318 89 Converting port number to Pd's float type;
#X text 427 193 Sequentially sending them to a connect message;
#X text 460 233 Clearing the message for further reusage;
#X text 387 307 The main connect message;
#X text 398 456 Close the spigot \, clear connect message;
#X text 228 208 1) Open spigot;
#X text 229 224 2) Send connect message;
#X text 378 113 Otherwise udpsend~ crashes with error;
#X connect 0 0 3 0;
#X connect 0 1 12 0;
#X connect 2 0 13 0;
#X connect 3 0 1 0;
#X connect 4 0 1 0;
#X connect 4 0 11 0;
#X connect 5 0 4 1;
#X connect 6 0 7 0;
#X connect 7 0 4 0;
#X connect 8 0 7 0;
#X connect 9 0 6 0;
#X connect 10 0 4 1;
#X connect 11 0 8 0;
#X connect 11 0 10 0;
#X connect 12 0 7 0;
#X connect 12 1 5 0;
#X connect 13 0 0 0;
#X connect 13 1 14 0;
#X connect 13 2 9 0;
#X connect 14 0 15 0;
#X connect 15 0 9 0;
#X restore 443 122 pd createMessage;
#X obj 168 25 print OSC_input;
#X connect 1 0 2 0;
#X connect 1 0 15 0;
#X connect 2 0 8 0;
#X connect 2 1 10 0;
#X connect 2 2 11 0;
#X connect 2 3 12 0;
#X connect 2 4 13 0;
#X connect 2 5 14 0;
#X connect 8 0 9 0;
#X connect 10 0 3 0;
#X connect 11 0 4 0;
#X connect 12 0 5 0;
#X connect 13 0 6 0;
#X connect 14 0 7 0;
#X restore 27 42 pd oscBonjour;
#X obj 179 151 print;
#N canvas 547 397 336 325 stream 0;
#X obj 64 69 inlet;
#X obj 190 50 inlet~;
#X obj 162 159 udpsend~ 1 512;
#X connect 0 0 2 0;
#X connect 1 0 2 0;
#X restore 263 237 pd stream;
#N canvas 547 397 336 325 stream 0;
#X obj 64 69 inlet;
#X obj 190 50 inlet~;
#X obj 162 159 udpsend~ 1 512;
#X connect 0 0 2 0;
#X connect 1 0 2 0;
#X restore 484 257 pd stream;
#N canvas 547 397 336 325 stream 0;
#X obj 64 69 inlet;
#X obj 190 50 inlet~;
#X obj 162 159 udpsend~ 1 512;
#X connect 0 0 2 0;
#X connect 1 0 2 0;
#X restore 57 366 pd stream;
#N canvas 547 397 336 325 stream 0;
#X obj 64 69 inlet;
#X obj 190 50 inlet~;
#X obj 162 159 udpsend~ 1 512;
#X connect 0 0 2 0;
#X connect 1 0 2 0;
#X restore 266 369 pd stream;
#N canvas 547 397 336 325 stream 0;
#X obj 64 69 inlet;
#X obj 190 50 inlet~;
#X obj 162 159 udpsend~ 1 512;
#X connect 0 0 2 0;
#X connect 1 0 2 0;
#X restore 462 373 pd stream;
#X connect 2 0 0 0;
#X connect 3 0 19 0;
#X connect 4 0 0 1;
#X connect 5 0 19 1;
#X connect 7 0 17 0;
#X connect 8 0 20 0;
#X connect 9 0 6 0;
#X connect 9 0 18 0;
#X connect 10 0 21 0;
#X connect 11 0 17 1;
#X connect 12 0 20 1;
#X connect 13 0 18 1;
#X connect 14 0 21 1;
