#N canvas 166 181 779 423 10;
#X declare -lib mrpeach;
#N canvas 547 397 336 325 stream 0;
#X obj 64 69 inlet;
#X obj 190 50 inlet~;
#X obj 162 159 udpsend~ 1 512;
#X obj 41 126 print;
#X connect 0 0 2 0;
#X connect 0 0 3 0;
#X connect 1 0 2 0;
#X restore 73 235 pd stream;
#X obj 29 156 r stream_ip_1;
#X obj 33 288 r stream_ip_2;
#X obj 95 199 r~ stream_audio_1;
#X obj 99 326 r~ stream_audio_2;
#X obj 434 241 print;
#X obj 249 166 r stream_ip_3;
#X obj 253 298 r stream_ip_4;
#X obj 445 173 r stream_ip_5;
#X obj 449 305 r stream_ip_6;
#X obj 315 209 r~ stream_audio_3;
#X obj 319 336 r~ stream_audio_4;
#X obj 511 216 r~ stream_audio_5;
#X obj 515 343 r~ stream_audio_6;
#N canvas 597 197 568 344 oscBonjour 0;
#X obj 342 8 import mrpeach;
#X obj 33 57 routeOSC /stream1 /stream2 /stream3 /stream4 /stream5
/stream6;
#X obj 50 162 s stream_ip_2;
#X obj 156 172 s stream_ip_3;
#X obj 258 193 s stream_ip_4;
#X obj 388 198 s stream_ip_5;
#X obj 428 143 s stream_ip_6;
#N canvas 208 117 735 587 createMessage 0;
#X obj 40 93 select disconnect;
#X obj 267 528 outlet;
#X obj 205 6 inlet;
#X msg 156 481 disconnect;
#X obj 364 388 spigot;
#X msg 263 306 1;
#X msg 384 234 add2 \$1;
#X msg 383 279 connect;
#X msg 494 256 set connect;
#X obj 384 195 drip;
#X msg 412 355 0;
#X obj 433 428 t b;
#X obj 236 252 t b b;
#X obj 208 43 unpack s s s;
#X obj 241 88 fromsymbol;
#X obj 240 123 route float;
#X text 564 338 comment;
#X text 241 24 connect port IP;
#X text 376 31 This is a hard workaround for Pds data types;
#X text 318 89 Converting port number to Pd's float type;
#X text 427 193 Sequentially sending them to a connect message;
#X text 460 233 Clearing the message for further reusage;
#X text 387 307 The main connect message;
#X text 398 456 Close the spigot \, clear connect message;
#X text 228 208 1) Open spigot;
#X text 229 224 2) Send connect message;
#X text 378 113 Otherwise udpsend~ crashes with error;
#X connect 0 0 3 0;
#X connect 0 1 12 0;
#X connect 2 0 13 0;
#X connect 3 0 1 0;
#X connect 4 0 1 0;
#X connect 4 0 11 0;
#X connect 5 0 4 1;
#X connect 6 0 7 0;
#X connect 7 0 4 0;
#X connect 8 0 7 0;
#X connect 9 0 6 0;
#X connect 10 0 4 1;
#X connect 11 0 8 0;
#X connect 11 0 10 0;
#X connect 12 0 7 0;
#X connect 12 1 5 0;
#X connect 13 0 0 0;
#X connect 13 1 14 0;
#X connect 13 2 9 0;
#X connect 14 0 15 0;
#X connect 15 0 9 0;
#X restore 32 200 pd createMessage;
#X obj 38 238 s stream_ip_1;
#N canvas 208 117 735 587 createMessage 0;
#X obj 40 93 select disconnect;
#X obj 267 528 outlet;
#X obj 205 6 inlet;
#X msg 156 481 disconnect;
#X obj 364 388 spigot;
#X msg 263 306 1;
#X msg 384 234 add2 \$1;
#X msg 383 279 connect;
#X msg 494 256 set connect;
#X obj 384 195 drip;
#X msg 412 355 0;
#X obj 433 428 t b;
#X obj 236 252 t b b;
#X obj 208 43 unpack s s s;
#X obj 241 88 fromsymbol;
#X obj 240 123 route float;
#X text 564 338 comment;
#X text 241 24 connect port IP;
#X text 376 31 This is a hard workaround for Pds data types;
#X text 318 89 Converting port number to Pd's float type;
#X text 427 193 Sequentially sending them to a connect message;
#X text 460 233 Clearing the message for further reusage;
#X text 387 307 The main connect message;
#X text 398 456 Close the spigot \, clear connect message;
#X text 228 208 1) Open spigot;
#X text 229 224 2) Send connect message;
#X text 378 113 Otherwise udpsend~ crashes with error;
#X connect 0 0 3 0;
#X connect 0 1 12 0;
#X connect 2 0 13 0;
#X connect 3 0 1 0;
#X connect 4 0 1 0;
#X connect 4 0 11 0;
#X connect 5 0 4 1;
#X connect 6 0 7 0;
#X connect 7 0 4 0;
#X connect 8 0 7 0;
#X connect 9 0 6 0;
#X connect 10 0 4 1;
#X connect 11 0 8 0;
#X connect 11 0 10 0;
#X connect 12 0 7 0;
#X connect 12 1 5 0;
#X connect 13 0 0 0;
#X connect 13 1 14 0;
#X connect 13 2 9 0;
#X connect 14 0 15 0;
#X connect 15 0 9 0;
#X restore 46 133 pd createMessage;
#N canvas 208 117 735 587 createMessage 0;
#X obj 40 93 select disconnect;
#X obj 267 528 outlet;
#X obj 205 6 inlet;
#X msg 156 481 disconnect;
#X obj 364 388 spigot;
#X msg 263 306 1;
#X msg 384 234 add2 \$1;
#X msg 383 279 connect;
#X msg 494 256 set connect;
#X obj 384 195 drip;
#X msg 412 355 0;
#X obj 433 428 t b;
#X obj 236 252 t b b;
#X obj 208 43 unpack s s s;
#X obj 241 88 fromsymbol;
#X obj 240 123 route float;
#X text 564 338 comment;
#X text 241 24 connect port IP;
#X text 376 31 This is a hard workaround for Pds data types;
#X text 318 89 Converting port number to Pd's float type;
#X text 427 193 Sequentially sending them to a connect message;
#X text 460 233 Clearing the message for further reusage;
#X text 387 307 The main connect message;
#X text 398 456 Close the spigot \, clear connect message;
#X text 228 208 1) Open spigot;
#X text 229 224 2) Send connect message;
#X text 378 113 Otherwise udpsend~ crashes with error;
#X connect 0 0 3 0;
#X connect 0 1 12 0;
#X connect 2 0 13 0;
#X connect 3 0 1 0;
#X connect 4 0 1 0;
#X connect 4 0 11 0;
#X connect 5 0 4 1;
#X connect 6 0 7 0;
#X connect 7 0 4 0;
#X connect 8 0 7 0;
#X connect 9 0 6 0;
#X connect 10 0 4 1;
#X connect 11 0 8 0;
#X connect 11 0 10 0;
#X connect 12 0 7 0;
#X connect 12 1 5 0;
#X connect 13 0 0 0;
#X connect 13 1 14 0;
#X connect 13 2 9 0;
#X connect 14 0 15 0;
#X connect 15 0 9 0;
#X restore 164 145 pd createMessage;
#N canvas 208 117 735 587 createMessage 0;
#X obj 40 93 select disconnect;
#X obj 267 528 outlet;
#X obj 205 6 inlet;
#X msg 156 481 disconnect;
#X obj 364 388 spigot;
#X msg 263 306 1;
#X msg 384 234 add2 \$1;
#X msg 383 279 connect;
#X msg 494 256 set connect;
#X obj 384 195 drip;
#X msg 412 355 0;
#X obj 433 428 t b;
#X obj 236 252 t b b;
#X obj 208 43 unpack s s s;
#X obj 241 88 fromsymbol;
#X obj 240 123 route float;
#X text 564 338 comment;
#X text 241 24 connect port IP;
#X text 376 31 This is a hard workaround for Pds data types;
#X text 318 89 Converting port number to Pd's float type;
#X text 427 193 Sequentially sending them to a connect message;
#X text 460 233 Clearing the message for further reusage;
#X text 387 307 The main connect message;
#X text 398 456 Close the spigot \, clear connect message;
#X text 228 208 1) Open spigot;
#X text 229 224 2) Send connect message;
#X text 378 113 Otherwise udpsend~ crashes with error;
#X connect 0 0 3 0;
#X connect 0 1 12 0;
#X connect 2 0 13 0;
#X connect 3 0 1 0;
#X connect 4 0 1 0;
#X connect 4 0 11 0;
#X connect 5 0 4 1;
#X connect 6 0 7 0;
#X connect 7 0 4 0;
#X connect 8 0 7 0;
#X connect 9 0 6 0;
#X connect 10 0 4 1;
#X connect 11 0 8 0;
#X connect 11 0 10 0;
#X connect 12 0 7 0;
#X connect 12 1 5 0;
#X connect 13 0 0 0;
#X connect 13 1 14 0;
#X connect 13 2 9 0;
#X connect 14 0 15 0;
#X connect 15 0 9 0;
#X restore 277 168 pd createMessage;
#N canvas 208 117 735 587 createMessage 0;
#X obj 40 93 select disconnect;
#X obj 267 528 outlet;
#X obj 205 6 inlet;
#X msg 156 481 disconnect;
#X obj 364 388 spigot;
#X msg 263 306 1;
#X msg 384 234 add2 \$1;
#X msg 383 279 connect;
#X msg 494 256 set connect;
#X obj 384 195 drip;
#X msg 412 355 0;
#X obj 433 428 t b;
#X obj 236 252 t b b;
#X obj 208 43 unpack s s s;
#X obj 241 88 fromsymbol;
#X obj 240 123 route float;
#X text 564 338 comment;
#X text 241 24 connect port IP;
#X text 376 31 This is a hard workaround for Pds data types;
#X text 318 89 Converting port number to Pd's float type;
#X text 427 193 Sequentially sending them to a connect message;
#X text 460 233 Clearing the message for further reusage;
#X text 387 307 The main connect message;
#X text 398 456 Close the spigot \, clear connect message;
#X text 228 208 1) Open spigot;
#X text 229 224 2) Send connect message;
#X text 378 113 Otherwise udpsend~ crashes with error;
#X connect 0 0 3 0;
#X connect 0 1 12 0;
#X connect 2 0 13 0;
#X connect 3 0 1 0;
#X connect 4 0 1 0;
#X connect 4 0 11 0;
#X connect 5 0 4 1;
#X connect 6 0 7 0;
#X connect 7 0 4 0;
#X connect 8 0 7 0;
#X connect 9 0 6 0;
#X connect 10 0 4 1;
#X connect 11 0 8 0;
#X connect 11 0 10 0;
#X connect 12 0 7 0;
#X connect 12 1 5 0;
#X connect 13 0 0 0;
#X connect 13 1 14 0;
#X connect 13 2 9 0;
#X connect 14 0 15 0;
#X connect 15 0 9 0;
#X restore 408 175 pd createMessage;
#N canvas 208 117 735 587 createMessage 0;
#X obj 40 93 select disconnect;
#X obj 267 528 outlet;
#X obj 205 6 inlet;
#X msg 156 481 disconnect;
#X obj 364 388 spigot;
#X msg 263 306 1;
#X msg 384 234 add2 \$1;
#X msg 383 279 connect;
#X msg 494 256 set connect;
#X obj 384 195 drip;
#X msg 412 355 0;
#X obj 433 428 t b;
#X obj 236 252 t b b;
#X obj 208 43 unpack s s s;
#X obj 241 88 fromsymbol;
#X obj 240 123 route float;
#X text 564 338 comment;
#X text 241 24 connect port IP;
#X text 376 31 This is a hard workaround for Pds data types;
#X text 318 89 Converting port number to Pd's float type;
#X text 427 193 Sequentially sending them to a connect message;
#X text 460 233 Clearing the message for further reusage;
#X text 387 307 The main connect message;
#X text 398 456 Close the spigot \, clear connect message;
#X text 228 208 1) Open spigot;
#X text 229 224 2) Send connect message;
#X text 378 113 Otherwise udpsend~ crashes with error;
#X connect 0 0 3 0;
#X connect 0 1 12 0;
#X connect 2 0 13 0;
#X connect 3 0 1 0;
#X connect 4 0 1 0;
#X connect 4 0 11 0;
#X connect 5 0 4 1;
#X connect 6 0 7 0;
#X connect 7 0 4 0;
#X connect 8 0 7 0;
#X connect 9 0 6 0;
#X connect 10 0 4 1;
#X connect 11 0 8 0;
#X connect 11 0 10 0;
#X connect 12 0 7 0;
#X connect 12 1 5 0;
#X connect 13 0 0 0;
#X connect 13 1 14 0;
#X connect 13 2 9 0;
#X connect 14 0 15 0;
#X connect 15 0 9 0;
#X restore 443 122 pd createMessage;
#X obj 168 25 print OSC_input;
#X obj 31 -3 dumpOSC 3002;
#X connect 1 0 7 0;
#X connect 1 1 9 0;
#X connect 1 2 10 0;
#X connect 1 3 11 0;
#X connect 1 4 12 0;
#X connect 1 5 13 0;
#X connect 7 0 8 0;
#X connect 9 0 2 0;
#X connect 10 0 3 0;
#X connect 11 0 4 0;
#X connect 12 0 5 0;
#X connect 13 0 6 0;
#X connect 15 0 1 0;
#X connect 15 0 14 0;
#X restore 36 25 pd oscBonjour;
#N canvas 547 397 336 325 stream 0;
#X obj 64 69 inlet;
#X obj 190 50 inlet~;
#X obj 162 159 udpsend~ 1 512;
#X connect 0 0 2 0;
#X connect 1 0 2 0;
#X restore 263 237 pd stream;
#N canvas 547 397 336 325 stream 0;
#X obj 64 69 inlet;
#X obj 190 50 inlet~;
#X obj 162 159 udpsend~ 1 512;
#X connect 0 0 2 0;
#X connect 1 0 2 0;
#X restore 484 257 pd stream;
#N canvas 547 397 336 325 stream 0;
#X obj 64 69 inlet;
#X obj 190 50 inlet~;
#X obj 162 159 udpsend~ 1 512;
#X connect 0 0 2 0;
#X connect 1 0 2 0;
#X restore 57 366 pd stream;
#N canvas 547 397 336 325 stream 0;
#X obj 64 69 inlet;
#X obj 190 50 inlet~;
#X obj 162 159 udpsend~ 1 512;
#X connect 0 0 2 0;
#X connect 1 0 2 0;
#X restore 266 369 pd stream;
#N canvas 547 397 336 325 stream 0;
#X obj 64 69 inlet;
#X obj 190 50 inlet~;
#X obj 162 159 udpsend~ 1 512;
#X connect 0 0 2 0;
#X connect 1 0 2 0;
#X restore 462 373 pd stream;
#N canvas 402 386 759 313 audio_source 1;
#N canvas 680 411 398 300 audio_source_noise 0;
#X obj -109 24 osc~ 440;
#X obj -14 22 noise~;
#X obj 53 68 r channel_ratio;
#X text 162 68 1 / channel num;
#X obj -78 92 *~;
#X obj 71 17 inlet;
#X text 119 18 toggle inlet;
#X obj -102 190 outlet~;
#X obj -40 191 outlet~;
#X obj 16 191 outlet~;
#X obj 74 191 outlet~;
#X obj 131 192 outlet~;
#X obj 190 191 outlet~;
#X obj -72 140 *~ 1;
#X connect 0 0 4 0;
#X connect 1 0 4 0;
#X connect 2 0 13 1;
#X connect 4 0 13 0;
#X connect 5 0 4 1;
#X connect 13 0 7 0;
#X connect 13 0 8 0;
#X connect 13 0 9 0;
#X connect 13 0 10 0;
#X connect 13 0 11 0;
#X connect 13 0 12 0;
#X restore 47 76 pd audio_source_noise;
#N canvas 214 22 361 208 audio_source_files 0;
#N canvas 290 70 569 608 \; 0;
#N canvas 0 22 450 300 (subpatch) 0;
#X array array4 722304 float 0;
#X coords 0 -1 722303 1 200 70 1 0 0;
#X restore -4809 496 graph;
#X obj -4567 190 soundfiler;
#X floatatom -4567 212 0 0 0 0 - - -;
#X obj -4567 275 soundfiler;
#X floatatom -4567 297 0 0 0 0 - - -;
#N canvas 0 22 450 300 (subpatch) 0;
#X array array1 722304 float 0;
#X coords 0 -1 722303 1 200 70 1;
#X restore -4808 237 graph;
#N canvas 0 22 450 300 (subpatch) 0;
#X array array2 705473 float 0;
#X coords 0 -1 705472 1 200 70 1;
#X restore -4808 323 graph;
#X obj -4570 361 soundfiler;
#X floatatom -4567 385 0 0 0 0 - - -;
#X obj -4567 448 soundfiler;
#X floatatom -4571 478 0 0 0 0 - - -;
#X obj -4746 26 loadbang;
#N canvas 0 22 450 300 (subpatch) 0;
#X array array3 722304 float 0;
#X coords 0 -1 722303 1 200 70 1 0 0;
#X restore -4809 410 graph;
#X obj -4466 480 s length;
#X msg -4597 236 read -resize ShyDrums.wav array2 \; pd dsp 1 \;;
#X msg -4597 325 read -resize ShyGuitar.wav array3 \; pd dsp 1 \;;
#X msg -4597 410 read -resize ShyPiano.wav array4 \; pd dsp 1 \;;
#X msg -4597 150 read -resize ShyBass.wav array1 \; pd dsp 1 \;;
#X connect 1 0 2 0;
#X connect 3 0 4 0;
#X connect 7 0 8 0;
#X connect 9 0 10 0;
#X connect 9 0 13 0;
#X connect 11 0 14 0;
#X connect 11 0 15 0;
#X connect 11 0 16 0;
#X connect 11 0 17 0;
#X connect 14 0 3 0;
#X connect 15 0 7 0;
#X connect 16 0 9 0;
#X connect 17 0 1 0;
#X restore 101 90 pd \; load_files;
#N canvas 7 159 714 498 \; 0;
#X obj 145 9 inlet;
#X obj 185 125 tabplay~ array1;
#X obj 165 176 tabplay~ array2;
#X obj 145 228 tabplay~ array3;
#X obj 145 40 t b b b b;
#X obj 205 75 tabplay~ array4;
#X obj 279 250 del 1;
#X obj 214 278 outlet~;
#X obj 298 198 outlet~;
#X obj 302 147 outlet~;
#X obj 326 86 outlet~;
#X obj 145 303 outlet~;
#X obj 337 44 outlet~;
#X obj 61 268 noise~;
#X obj 273 21 pink~;
#X connect 0 0 4 0;
#X connect 1 0 9 0;
#X connect 2 0 8 0;
#X connect 3 0 7 0;
#X connect 3 1 6 0;
#X connect 4 0 3 0;
#X connect 4 1 2 0;
#X connect 4 2 1 0;
#X connect 4 3 5 0;
#X connect 5 0 10 0;
#X connect 6 0 4 0;
#X connect 13 0 11 0;
#X connect 14 0 12 0;
#X restore 27 92 pd \; phase II;
#X obj 24 42 inlet;
#X obj 19 155 outlet~;
#X obj 81 156 outlet~;
#X obj 137 156 outlet~;
#X obj 195 156 outlet~;
#X obj 252 157 outlet~;
#X obj 311 156 outlet~;
#X connect 1 0 3 0;
#X connect 1 1 4 0;
#X connect 1 2 5 0;
#X connect 1 3 6 0;
#X connect 1 4 7 0;
#X connect 1 5 8 0;
#X connect 2 0 1 0;
#X restore 211 72 pd audio_source_files;
#X obj 13 51 tgl 15 0 empty empty empty 17 7 0 10 -262144 -1 -1 1 1
;
#X obj 211 43 bng 15 250 50 0 empty empty empty 17 7 0 10 -262144 -1
-1;
#X obj 360 40 bng 15 250 50 0 empty empty empty 17 7 0 10 -262144 -1
-1;
#N canvas 214 22 361 208 audio_source_metronomes 0;
#N canvas 290 70 569 608 \; 0;
#N canvas 0 22 450 300 (subpatch) 0;
#X array marray4 107862 float 0;
#X coords 0 -1 107861 1 200 70 1 0 0;
#X restore -4809 496 graph;
#X obj -4567 190 soundfiler;
#X floatatom -4567 212 0 0 0 0 - - -;
#X obj -4567 275 soundfiler;
#X floatatom -4567 297 0 0 0 0 - - -;
#N canvas 0 22 450 300 (subpatch) 0;
#X array marray1 107862 float 0;
#X coords 0 -1 107861 1 200 70 1 0 0;
#X restore -4808 237 graph;
#N canvas 0 22 450 300 (subpatch) 0;
#X array marray2 107862 float 0;
#X coords 0 -1 107861 1 200 70 1 0 0;
#X restore -4808 323 graph;
#X obj -4570 361 soundfiler;
#X floatatom -4567 385 0 0 0 0 - - -;
#X obj -4567 448 soundfiler;
#X floatatom -4571 478 0 0 0 0 - - -;
#X obj -4746 26 loadbang;
#N canvas 0 22 450 300 (subpatch) 0;
#X array marray3 107862 float 0;
#X coords 0 -1 107861 1 200 70 1 0 0;
#X restore -4809 410 graph;
#X obj -4466 480 s length;
#X msg -4597 150 read -resize metronome.wav marray1 \; pd dsp 1 \;
;
#X msg -4597 236 read -resize metronome.wav marray2 \; pd dsp 1 \;
;
#X msg -4597 325 read -resize metronome.wav marray3 \; pd dsp 1 \;
;
#X msg -4598 410 read -resize metronome.wav marray4 \; pd dsp 1 \;
;
#X connect 1 0 2 0;
#X connect 3 0 4 0;
#X connect 7 0 8 0;
#X connect 9 0 10 0;
#X connect 9 0 13 0;
#X connect 11 0 15 0;
#X connect 11 0 16 0;
#X connect 11 0 17 0;
#X connect 11 0 14 0;
#X connect 14 0 1 0;
#X connect 15 0 3 0;
#X connect 16 0 7 0;
#X connect 17 0 9 0;
#X restore 101 90 pd \; load_files;
#N canvas 7 159 714 498 \; 0;
#X obj 145 9 inlet;
#X obj 145 40 t b b b b;
#X obj 279 250 del 1;
#X obj 214 278 outlet~;
#X obj 298 198 outlet~;
#X obj 302 147 outlet~;
#X obj 326 86 outlet~;
#X obj 145 303 outlet~;
#X obj 337 44 outlet~;
#X obj 61 268 noise~;
#X obj 273 21 pink~;
#X obj 205 76 tabplay~ marray4;
#X obj 185 125 tabplay~ marray1;
#X obj 165 176 tabplay~ marray2;
#X obj 145 228 tabplay~ marray3;
#X connect 0 0 1 0;
#X connect 1 0 14 0;
#X connect 1 1 13 0;
#X connect 1 2 12 0;
#X connect 1 3 11 0;
#X connect 2 0 1 0;
#X connect 9 0 7 0;
#X connect 10 0 8 0;
#X connect 11 0 6 0;
#X connect 12 0 5 0;
#X connect 13 0 4 0;
#X connect 14 0 3 0;
#X connect 14 1 2 0;
#X restore 27 92 pd \; phase II;
#X obj 24 42 inlet;
#X obj 19 155 outlet~;
#X obj 81 156 outlet~;
#X obj 137 156 outlet~;
#X obj 195 156 outlet~;
#X obj 252 157 outlet~;
#X obj 311 156 outlet~;
#X connect 1 0 3 0;
#X connect 1 1 4 0;
#X connect 1 2 5 0;
#X connect 1 3 6 0;
#X connect 1 4 7 0;
#X connect 1 5 8 0;
#X connect 2 0 1 0;
#X restore 359 69 pd audio_source_metronomes;
#X obj 540 68 adc~ 1 2 3 4 5 6;
#X obj 46 173 s~ stream_audio_1;
#X obj 185 174 s~ stream_audio_2;
#X obj 316 174 s~ stream_audio_3;
#X obj 50 207 s~ stream_audio_4;
#X obj 186 206 s~ stream_audio_5;
#X obj 318 208 s~ stream_audio_6;
#X obj 12 25 loadbang;
#X text 46 55 white noise + osc~;
#X text 272 6 white/pink noise + audio files;
#X text 539 43 live sound input;
#X text 303 22 tap bang to start;
#X connect 0 0 7 0;
#X connect 0 1 8 0;
#X connect 0 2 9 0;
#X connect 0 3 10 0;
#X connect 0 4 11 0;
#X connect 0 5 12 0;
#X connect 2 0 0 0;
#X connect 3 0 1 0;
#X connect 4 0 5 0;
#X connect 13 0 2 0;
#X restore 36 69 pd audio_source;
#X text 138 69 pick audio source here;
#X connect 1 0 0 0;
#X connect 2 0 17 0;
#X connect 3 0 0 1;
#X connect 4 0 17 1;
#X connect 6 0 15 0;
#X connect 7 0 18 0;
#X connect 8 0 5 0;
#X connect 8 0 16 0;
#X connect 9 0 19 0;
#X connect 10 0 15 1;
#X connect 11 0 18 1;
#X connect 12 0 16 1;
#X connect 13 0 19 1;
