#N canvas 538 164 693 434 10;
#X declare -lib mrpeach;
#N canvas 547 397 336 325 stream 0;
#X obj 26 36 inlet;
#X obj 104 35 inlet~;
#X obj 80 121 udpsend~ 1 512;
#X connect 0 0 2 0;
#X connect 1 0 2 0;
#X restore 73 235 pd stream;
#N canvas 427 208 398 300 audio_source 0;
#X obj -109 24 osc~ 440;
#X obj -14 22 noise~;
#X obj 53 68 r channel_ratio;
#X text 162 68 1 / channel num;
#X obj -126 197 s~ stream_audio_1;
#X obj -1 197 s~ stream_audio_2;
#X obj -72 140 *~ 0.2;
#X obj -40 234 s~ stream_audio_3;
#X obj 85 234 s~ stream_audio_4;
#X obj -115 263 s~ stream_audio_5;
#X obj 10 263 s~ stream_audio_6;
#X connect 0 0 6 0;
#X connect 1 0 6 0;
#X connect 2 0 6 1;
#X connect 6 0 4 0;
#X connect 6 0 5 0;
#X connect 6 0 7 0;
#X connect 6 0 8 0;
#X connect 6 0 9 0;
#X connect 6 0 10 0;
#X restore 28 76 pd audio_source;
#N canvas 547 397 336 325 stream 0;
#X obj 26 36 inlet;
#X obj 104 35 inlet~;
#X obj 80 121 udpsend~ 1 512;
#X connect 0 0 2 0;
#X connect 1 0 2 0;
#X restore 57 361 pd stream;
#X obj 29 156 r stream_ip_1;
#X obj 33 288 r stream_ip_2;
#X obj 95 199 r~ stream_audio_1;
#X obj 99 326 r~ stream_audio_2;
#N canvas 547 397 336 325 stream 0;
#X obj 26 36 inlet;
#X obj 104 35 inlet~;
#X obj 80 121 udpsend~ 1 512;
#X connect 0 0 2 0;
#X connect 1 0 2 0;
#X restore 293 245 pd stream;
#N canvas 547 397 336 325 stream 0;
#X obj 26 36 inlet;
#X obj 104 35 inlet~;
#X obj 80 121 udpsend~ 1 512;
#X connect 0 0 2 0;
#X connect 1 0 2 0;
#X restore 277 371 pd stream;
#X obj 238 234 print;
#N canvas 547 397 336 325 stream 0;
#X obj 26 36 inlet;
#X obj 104 35 inlet~;
#X obj 80 121 udpsend~ 1 512;
#X connect 0 0 2 0;
#X connect 1 0 2 0;
#X restore 489 252 pd stream;
#N canvas 547 397 336 325 stream 0;
#X obj 26 36 inlet;
#X obj 104 35 inlet~;
#X obj 80 121 udpsend~ 1 512;
#X connect 0 0 2 0;
#X connect 1 0 2 0;
#X restore 473 378 pd stream;
#X obj 434 241 print;
#X obj 249 166 r stream_ip_3;
#X obj 253 298 r stream_ip_4;
#X obj 445 173 r stream_ip_5;
#X obj 449 305 r stream_ip_6;
#X obj 315 209 r~ stream_audio_3;
#X obj 319 336 r~ stream_audio_4;
#X obj 511 216 r~ stream_audio_5;
#X obj 515 343 r~ stream_audio_6;
#N canvas 570 232 510 323 oscBonjour 0;
#X obj 24 -12 import mrpeach;
#X obj 32 25 dumpOSC 3000;
#X obj 32 61 routeOSC /stream1 /stream2 /stream3 /stream4 /stream5
/stream6;
#X obj 21 114 s stream_ip_1;
#X obj 51 144 s stream_ip_2;
#X obj 133 175 s stream_ip_3;
#X obj 213 201 s stream_ip_4;
#X obj 296 225 s stream_ip_5;
#X obj 385 248 s stream_ip_6;
#X obj 169 20 print;
#X connect 1 0 2 0;
#X connect 1 0 9 0;
#X connect 2 0 3 0;
#X connect 2 1 4 0;
#X connect 2 2 5 0;
#X connect 2 3 6 0;
#X connect 2 4 7 0;
#X connect 2 5 8 0;
#X restore 27 42 pd oscBonjour;
#X obj 179 151 print;
#X obj 198 82 pack \$1;
#X msg 279 100 set \$1;
#X msg 352 131;
#X connect 3 0 23 0;
#X connect 4 0 2 0;
#X connect 5 0 0 1;
#X connect 6 0 2 1;
#X connect 13 0 7 0;
#X connect 13 0 9 0;
#X connect 14 0 8 0;
#X connect 15 0 10 0;
#X connect 15 0 12 0;
#X connect 16 0 11 0;
#X connect 17 0 7 1;
#X connect 18 0 8 1;
#X connect 19 0 10 1;
#X connect 20 0 11 1;
#X connect 23 0 24 0;
#X connect 24 0 25 0;
